<?xml version="1.0" standalone="no"?>
<!DOCTYPE svg PUBLIC "-//W3C//DTD SVG 1.1//EN" "http://www.w3.org/Graphics/SVG/1.1/DTD/svg11.dtd" >
<svg xmlns="http://www.w3.org/2000/svg" xmlns:xlink="http://www.w3.org/1999/xlink" version="1.1">
<metadata></metadata>
<defs>
<font id="angelinaregular" horiz-adv-x="2512" >
<font-face units-per-em="2048" ascent="1638" descent="-410" />
<missing-glyph horiz-adv-x="530" />
<glyph horiz-adv-x="0" />
<glyph unicode="&#xd;" horiz-adv-x="530" />
<glyph unicode=" "  horiz-adv-x="530" />
<glyph unicode="&#x09;" horiz-adv-x="530" />
<glyph unicode="&#xa0;" horiz-adv-x="530" />
<glyph unicode="!" horiz-adv-x="407" d="M88 410q0 190 37 405q42 247 94 247q18 0 34 -16t16 -34q0 -6 -2 -10q-88 -240 -88 -595q0 -215 85 -276q29 -27 9 -42q-12 -9 -41 4q-59 24 -101 114q-35 73 -40 137q-3 26 -3 66zM149 -89q0 55 63 55q65 0 65 -51q0 -17 -25 -33t-42 -16q-60 0 -61 45z" />
<glyph unicode="&#x22;" horiz-adv-x="415" d="M44 591q0 17 18 31q55 42 55 165q0 24 -4 47q-2 16 21 33.5t46 17.5q37 0 37 -54q0 -58 -36 -134q-37 -81 -88 -120q-13 -9 -25 -8q-24 0 -24 22zM174 591q0 17 18 31q55 42 55 165q0 24 -4 47q-2 16 21.5 33.5t45.5 17.5q37 0 37 -54q0 -58 -36 -134q-38 -81 -89 -120 q-13 -9 -24 -8q-24 0 -24 22z" />
<glyph unicode="#" horiz-adv-x="1328" d="M18 764q0 23 28 35q149 60 401 100t484 40q201 0 327 -31q32 -8 31 -46q-2 -37 -31 -37q-5 0 -10 1q-138 35 -373 35q-226 0 -452 -32q-233 -32 -364 -86q-9 -4 -16 -4q-25 0 -25 25zM26 458q0 23 29 34q149 61 401 101.5t485 40.5q200 0 327 -32q31 -8 30 -46 q-1 -37 -31 -37q-5 0 -10 1q-138 35 -372 35q-226 0 -452 -31q-234 -33 -365 -87q-9 -3 -16 -3q-25 0 -26 24zM219 58q27 234 180 583q157 365 313 530q11 13 28 13q25 0 40 -21q17 -21 -2 -41q-151 -162 -314.5 -512.5t-189.5 -566.5q-3 -30 -26 -30q-34 0 -29 45zM609 125 q28 233 179 583q157 365 313 531q11 13 28 11q25 0 40 -19q17 -21 -2 -41q-151 -162 -314.5 -513t-189.5 -567q-3 -30 -26 -30q-34 0 -28 45z" />
<glyph unicode="$" horiz-adv-x="533" d="M-49 800q0 72 98 186q94 109 198 168q20 88 46 149q9 21 37 21q20 0 34 -12.5t7 -31.5q-16 -39 -32 -90q10 1 21 1q28 0 70 -23q50 -26 50 -59q0 -42 -34 -42q-6 0 -38.5 17t-49.5 19q-17 1 -44 -9q-34 -140 -57 -311q210 -18 210 -150q0 -83 -75 -156q-65 -63 -160 -97 q2 -88 13 -149q6 -36 -22 -36q-25 0 -31 33q-10 59 -14 138q-29 -5 -54 -5q-49 0 -91 29q-49 35 -49 90q0 22 20 52q22 34 48 35q8 0 14 -2q-5 -34 -13 -53q-5 -11 -5 -22q0 -44 53 -44q29 0 75 11q-2 123 6 257l-81 4q-46 2 -90 18q-59 24 -60 64zM50 825q0 -40 138 -39 q13 138 35 259q-70 -50 -120 -110q-54 -65 -53 -110zM233 475q169 63 169 145q0 41 -40 67q-33 22 -73 23l-39 2q-14 -125 -17 -237z" />
<glyph unicode="%" horiz-adv-x="872" d="M-86 -162q0 12 6 24q86 200 300.5 490t429.5 494q-41 3 -75 10q-47 -156 -137 -176q-16 -3 -30 -3q-85 0 -85 100q0 60 38.5 134.5t70.5 74.5q33 0 33 -29q0 -9 -15 -30q-59 -78 -60 -145q0 -51 21 -51q64 0 108 144q-78 33 -74 95q4 55 59 55q79 0 82 -108q27 -4 97 -4 q24 0 43 2q64 56 120 93q12 8 26 8q32 0 43 -24q13 -27 -25 -57q-32 -24 -91 -71q-226 -180 -484 -503q-252 -317 -344 -530q-11 -25 -30 -25q-26 0 -27 32zM271 36q0 61 38.5 135.5t70.5 74.5q33 0 34 -30q0 -2 -38 -60.5t-38 -114.5q0 -50 21 -50q39 0 81 78q37 70 37 112 q0 53 -22 53q-20 0 -49 -28l-13 8q-10 6 -10 18q0 16 32 33q27 15 40 15q77 0 79 -105q1 -50 -38 -128q-48 -93 -110 -107q-17 -4 -30 -4q-85 0 -85 100zM497 973q1 -29 32 -42q-4 44 -21 44q-11 2 -11 -2z" />
<glyph unicode="&#x26;" horiz-adv-x="1035" d="M59 172q0 45 20 87q45 95 133 168q82 68 165 91q-173 79 -172 202q0 43 21 88q79 169 303 169q21 0 42 -2q54 -5 130 -49q93 -53 93 -107q1 -17 -17.5 -33t-39.5 -16t-33 21q-64 120 -199 120q-152 0 -206 -112q-12 -26 -11 -51q0 -68 95 -130q5 -3 155 -79 q12 -6 60.5 -6t65.5 -7q37 -15 37 -50t-43 -35q-8 0 -16 2q-70 12 -98 11q-79 -1 -86 0q-65 3 -165 -55q-111 -65 -152 -149q-18 -37 -17 -72q0 -81 89 -141q77 -54 177 -67q31 -4 62 -4q163 0 250 101q98 111 41 292q-2 7 -2 13q0 23 22 20q21 -4 34 -39q27 -77 27 -144 q0 -172 -159 -263q-140 -80 -312 -58q-100 13 -192 92q-102 88 -102 192zM404 212q0 88 122 135q113 36 225 71q122 48 122 135q0 57 -56.5 90t-56.5 44q0 28 35 28q45 0 96 -54q57 -59 57 -122q0 -100 -84 -158q-56 -39 -173 -67q-56 -12 -164 -43q-64 -25 -65 -66 q0 -10 14 -36t14 -37q0 -27 -27 -28q-11 0 -30 36q-29 51 -29 72z" />
<glyph unicode="'" horiz-adv-x="276" d="M56 591q0 17 17 31q55 42 55 165q0 24 -3 47q-3 16 20.5 33.5t46.5 17.5q37 0 37 -54q0 -58 -36 -134q-38 -81 -90 -120q-12 -9 -24 -8q-23 0 -23 22z" />
<glyph unicode="(" horiz-adv-x="453" d="M12 314q0 139 23 243q37 159 115 303q91 167 201 239q9 6 18 6q25 0 38 -31q14 -32 -4 -52q-221 -257 -282 -526q-26 -115 -26 -239q0 -316 194 -373q14 -21 13 -39q0 -45 -57 -32q-125 29 -186 188q-48 127 -47 313z" />
<glyph unicode=")" horiz-adv-x="451" d="M18 -177q0 10 8 20q218 256 293 574q26 115 26 239q0 316 -194 375q-14 21 -13 39q0 45 57 31q125 -28 185 -187q48 -127 48 -314q0 -139 -23 -242q-37 -160 -116 -304q-90 -167 -200 -238q-20 -14 -41 -14q-30 0 -30 21z" />
<glyph unicode="*" />
<glyph unicode="+" />
<glyph unicode="," horiz-adv-x="441" d="M70 -126q0 21 28 31q35 14 67.5 69t42.5 119q5 31 61 31q44 0 43 -38q-2 -52 -64 -128q-66 -79 -135 -104q-43 -16 -43 20z" />
<glyph unicode="-" horiz-adv-x="654" d="M20 403q6 30 141 59q101 21 169 27q70 5 112 -2q47 -9 89 -32q59 -32 51 -73l-27 -21q-30 10 -66 34q-26 18 -44 20q-31 6 -66 6q-64 0 -298 -67q-13 -4 -21 -3q-48 9 -40 52z" />
<glyph unicode="." horiz-adv-x="297" d="M116 42q0 51 53 51q76 0 76 -44q0 -68 -58 -68q-23 0 -46 16q-25 19 -25 45z" />
<glyph unicode="/" horiz-adv-x="872" d="M-86 -162q0 12 6 24q110 255 398 616q298 375 528 530q12 8 25 8q29 0 44 -26q16 -28 -12 -46q-225 -152 -529 -516q-301 -360 -403 -597q-11 -25 -30 -25q-26 0 -27 32z" />
<glyph unicode="0" horiz-adv-x="823" d="M-50 286q-6 237 56 428q90 275 302 344q12 4 34 -6q26 -12 27 -32q0 -43 -73 -62q-131 -33 -218 -281q-49 -138 -49 -312q0 -132 54 -268q78 -195 226 -195q155 0 262 224q82 170 95 344q2 26 2 56q0 167 -53 292q-65 155 -183 155q-58 0 -89 -107q-13 -13 -25 -13 q-14 0 -22.5 16t-4.5 32q13 64 70 103q48 32 97 33q138 0 224 -186q70 -152 70 -313q0 -230 -110 -441q-136 -261 -357 -261q-146 0 -249 184q-82 145 -86 266z" />
<glyph unicode="1" horiz-adv-x="505" d="M-51 -158q0 45 204 124q-42 69 -42 167v120q0 221 64 491q33 139 34 188q-28 -7 -74 -75q-44 -64 -72 -64q-45 0 -44 39q0 40 96 120q94 77 132 77q27 0 50 -18q27 -20 28 -51q0 -21 -51 -205q-88 -317 -88 -588q0 -185 69 -186h82q24 0 64 -28q43 -31 43 -59l-4 -30 q-31 4 -66 30q-23 16 -67 15q-88 0 -267 -89q-39 -20 -50 -20q-41 0 -41 42z" />
<glyph unicode="2" horiz-adv-x="872" d="M-108 747q0 34 34 58q31 16 61 31q299 153 508 153q126 0 202 -56q87 -63 87 -189q0 -101 -132 -234q-87 -89 -278 -229q-99 -71 -274 -206q-118 -98 -118 -143q0 -9 28 -9q48 0 227 58q185 61 270 62q57 0 115 -30q75 -37 75 -98q0 -37 -43 -70h-49q26 62 26 67 q0 48 -141 48q-89 0 -201 -40q-96 -38 -191 -76q-62 -22 -100 -22q-37 0 -70 31.5t-33 68.5q0 73 132 192q53 47 278 219q189 145 275 234q120 125 120 214q0 136 -154 136q-230 0 -529 -184q-60 -37 -72 -37q-54 0 -53 51z" />
<glyph unicode="3" horiz-adv-x="920" d="M-143 80q0 23 18 29q20 7 33 -16q39 -98 142 -154q96 -53 208 -53q153 0 309 86q175 97 174 228q0 153 -321 153q-23 0 -172 -23q-29 -5 -43 -5q-38 0 -38 29q0 45 65 64q42 9 126 33q166 57 312 150q195 126 195 235q0 71 -73 108q-64 32 -150 26q-178 -12 -333 -80 q-101 -44 -153 -90q-16 -15 -39 -15q-52 0 -52 43q0 63 190 138q195 77 381 78q314 0 314 -216q0 -142 -197 -272q-62 -42 -232 -129q291 -20 290 -234q0 -149 -183 -277q-168 -118 -320 -118q-344 0 -445 260q-7 12 -6 22z" />
<glyph unicode="4" horiz-adv-x="883" d="M-77 227q0 10 38 89q44 94 47 99q85 213 123 372q7 43 24 146q25 129 68 129q50 0 50 -66q0 -82 -85 -334q-82 -241 -146 -365q93 25 288 93q207 72 251 97q21 128 67 302q61 238 97 238q52 0 52 -50q0 -37 -62 -227q-55 -172 -63 -251l8 2q12 2 21 2q113 0 172 -97 l-17 -58q-63 68 -164 68q-4 0 -40 -14q-25 -163 -25 -218v-175q0 -148 52 -179q32 -19 68 -54q-59 -12 -61 -12q-84 0 -126 121q-28 85 -28 187q0 55 16 156q18 105 19 154q-118 -29 -168 -44q-95 -28 -163 -61q-59 -22 -161 -65q-74 -33 -92 -34q-60 0 -60 49z" />
<glyph unicode="5" horiz-adv-x="893" d="M-73 -69q0 21 7 46q5 19 28 50q26 36 43 36q38 0 23 -50q-20 -14 -27 -43q-2 -11 -2 -20q0 -63 119 -63q176 0 375 132q212 139 256 307q8 29 8 57q0 79 -58 127t-148 48q-169 0 -483 -182q-64 -37 -81 -37q-50 0 -49 34q0 22 43 92q90 143 144 348q3 9 8 29l-14 -8 q-34 -20 -54 -20q-47 0 -46 39q0 6 1 11q11 39 179 108q138 57 210 72q117 26 248 27q60 0 98 -38q32 -32 32 -73q0 -44 -35 -51q-19 -3 -26.5 10t-2.5 30q1 5 1 10q0 38 -97 38q-144 0 -395 -113q-49 -190 -144 -364q-14 -24 -20 -38q266 152 452 152q138 0 224 -54 q97 -61 97 -180q0 -42 -13 -90q-57 -217 -299 -368q-217 -136 -419 -135q-183 0 -183 124z" />
<glyph unicode="6" horiz-adv-x="757" d="M-17 195q0 249 118 478q73 142 190 257q148 150 280 151q44 0 93 -20q62 -25 64 -65q2 -43 -52 -43q-10 0 -66 16q-51 16 -82 16q-82 0 -197 -127q-98 -108 -144 -210q-137 -309 -131 -477q7 -276 157 -276q68 0 165 91q86 80 128 160q92 176 89 296q-4 145 -123 145 t-231 -159q-106 -151 -103 -280q1 -33 22 -72t21 -44q1 -32 -34 -32q-31 0 -56 66q-20 53 -22 92q-4 168 113 325q127 170 295 169q97 0 149 -67q47 -59 50 -153q5 -181 -128 -384q-145 -224 -325 -225q-64 0 -119.5 36t-79.5 96q-41 105 -41 240z" />
<glyph unicode="7" horiz-adv-x="711" d="M-36 1016q0 44 52 44q28 0 79.5 -14.5t77.5 -15.5q308 -11 539 22q50 8 50 -35q0 -15 -8 -31q-20 -9 -55 -27q-69 -39 -185 -194q-89 -118 -158 -237q-179 -306 -218 -549q-6 -33 -14 -108q-23 -24 -43 -24q-47 0 -47 74q0 203 201 553q178 310 358 491h-8 q-92 -10 -325 -23q-296 -8 -296 74z" />
<glyph unicode="8" horiz-adv-x="811" d="M-82 644q0 95 168 206q134 89 332 164q177 67 242 68q88 0 144.5 -58.5t56.5 -144.5q0 -27 -24 -108q-31 -100 -66 -100q-52 0 -51 41q0 23 36.5 82t36.5 103q0 99 -124 100q-148 0 -400 -130q-268 -138 -268 -249q0 -42 277 -121q35 -10 139 -44q5 -2 11 -4q17 0 108 84 q80 73 103 101q15 17 14 30q0 -4 -3 23q-3 15 4 31q12 13 23 12q18 0 32 -28q12 -24 12 -45q0 -68 -181 -221l-15 -14q108 -51 151 -105q35 -46 35 -104q0 -153 -158 -250q-130 -80 -271 -80q-224 0 -224 144q0 125 297 365q-47 20 -144.5 48t-144.5 50q-148 65 -148 154z M129 24q0 -71 166 -71q83 0 207 78q140 87 141 181q0 42 -87 100q-80 53 -111 53q-22 0 -165 -141q-151 -148 -151 -200z" />
<glyph unicode="9" horiz-adv-x="743" d="M-21 488q0 168 125 367q138 219 291 220q150 0 218 -169q51 -122 51 -304q0 -32 -2 -63q-15 -251 -138 -481q-154 -287 -365 -287q-41 0 -100 28q-75 36 -76 84q0 29 24 29q16 0 29 -12q64 -60 114 -61q210 0 342 358q97 263 96 452q0 100 -28 197q-49 158 -153 158 q-35 0 -130 -71q-99 -74 -156 -220q-49 -129 -49 -268q0 -178 117 -179q118 0 220 163q93 149 92 289q0 91 -50 115q-16 7 -16 21q0 16 17.5 29.5t30.5 7.5q58 -28 76 -91q11 -39 11 -130q0 -133 -105 -290q-122 -184 -283 -184q-5 0 -15 4l-3 1q-102 0 -152 116 q-33 79 -33 171z" />
<glyph unicode=":" horiz-adv-x="291" d="M111 2q0 51 52 51q76 0 76 -43q0 -69 -57 -69q-24 0 -45 17q-25 19 -26 44zM174 458q0 51 51 51q77 0 77 -44q1 -67 -57 -67q-23 0 -46 16q-25 19 -25 44z" />
<glyph unicode=";" horiz-adv-x="434" d="M62 -165q0 20 29 31q34 14 67 69t43 119q5 31 61 31q43 0 42 -38q-2 -52 -64 -128q-66 -79 -134 -104q-44 -17 -44 20zM260 480q0 51 52 51q77 0 77 -44q1 -68 -57 -68q-23 0 -46 17q-25 18 -26 44z" />
<glyph unicode="&#x3c;" />
<glyph unicode="=" />
<glyph unicode="&#x3e;" />
<glyph unicode="?" horiz-adv-x="833" d="M-59 767q0 50 163 143q140 81 211 100q106 29 211 30q272 0 272 -203q0 -117 -194 -271q-47 -37 -158 -116q-208 -147 -208 -215q0 -32 30 -36q53 -7 53 -32q0 -38 -47 -38q-48 0 -78.5 34.5t-30.5 80.5q0 80 144 202q135 103 268 206q144 117 145 189q0 131 -198 130 q-105 0 -240 -65q-90 -43 -202 -121q-94 -65 -99 -65q-43 0 -42 47zM187 -87q0 55 64 55q65 0 65 -51q0 -17 -27 -33q-23 -16 -41 -16q-60 0 -61 45z" />
<glyph unicode="@" horiz-adv-x="998" d="M33 408q0 175 150 316q146 138 316 138q114 0 213 -74q108 -83 133 -216q5 -31 4 -63q0 -132 -70 -219q-76 -96 -183 -58q-61 22 -61 144q-172 -214 -271 -213q-55 0 -54 66q0 125 165 319.5t244 142.5q25 -17 26 -65q0 -61 -43 -65q-19 -2 -28.5 9t-3.5 24q11 26 9 47 q0 6 5 7q-56 -11 -188 -181t-132 -231q0 -20 19 -20q43 0 154 134q37 43 73 87q44 58 49 100q4 31 36 32q44 0 36 -42q-31 -157 -31 -189q0 -54 23 -60q10 -2 19 -2q64 0 106.5 92.5t20.5 199.5q-22 113 -101 178q-73 59 -169 60q-145 0 -270.5 -123.5t-125.5 -274.5 q0 -163 134 -270q125 -99 293 -100q137 0 229.5 73t92.5 182q0 39 -13 78q-2 7 -2 12q0 20 16 24q18 4 28 -18q31 -65 31 -126q0 -126 -123 -206q-111 -76 -259 -76q-187 0 -334 112q-163 124 -163 315z" />
<glyph unicode="A" horiz-adv-x="1095" d="M-74 -163q0 24 154 326q39 77 56 116q-53 -20 -92 -47q-17 -11 -40 -11q-48 0 -48 49q0 34 96 69q63 20 126 42q23 51 56 118q56 125 174 370q118 228 228 228q52 0 91 -66q25 -44 36 -92q28 -130 49 -446q191 -17 192 -133q0 -42 -35 -60q-13 -6 -22 -6q-21 0 -21 33 q0 7 9 33q0 53 -127 53q12 0 16 -23q63 -443 138 -443q16 0 30 11q20 17 27.5 19.5t14.5 2.5q35 2 35 -39q0 -27 -43 -46q-32 -15 -59 -15h-3q-177 1 -232 531q-19 2 -43 2q-90 0 -273 -42q-169 -38 -173 -50q-33 -82 -105 -246q-29 -76 -79 -201q-38 -93 -81 -93h-1 q-51 0 -51 56zM295 419q234 67 432 82q-8 97 -31 305q-32 211 -81 211t-178 -273q-45 -95 -142 -325z" />
<glyph unicode="B" horiz-adv-x="1142" d="M-122 694q0 37 119 132q321 255 610 255q272 0 272 -188q0 -128 -232 -322q73 14 149 14q95 0 175 -39q105 -52 106 -146q0 -163 -257 -348q-230 -167 -405 -190q-212 -28 -247 -28q-197 0 -197 133q0 84 67 126q29 0 34 -5q2 -2 12 -33q-43 -49 -43 -88q0 -45 129 -45 q193 0 421 96q111 46 251 164q159 135 159 216q0 100 -198 100q-145 0 -295 -53q-7 -3 -120 -53q-90 -40 -109 -40q-57 0 -57 21q0 28 90 80q471 267 471 461q0 47 -54 74q-47 23 -112 23q-278 0 -607 -306q-68 -63 -84 -63q-48 0 -48 52zM54 265q0 103 44 318 q52 256 105 256q49 0 49 -51q0 -23 -18 -55q-97 -184 -97 -511v-7q0 -141 101 -171q16 -16 16 -29q0 -29 -46 -30q-72 0 -118 113q-36 88 -36 167z" />
<glyph unicode="C" horiz-adv-x="827" d="M-59 183v72q0 145 92 349q98 213 237 353q161 162 319 162q36 0 88 -26q61 -30 61 -65q0 -24 -19.5 -41.5t-41.5 -17.5q-5 0 -54 22.5t-82 22.5q-161 0 -343 -300q-170 -281 -170 -470q0 -134 42 -222q53 -110 160 -110q91 0 210 69q177 102 303 342q20 39 44 39 q22 0 32 -41q-5 -30 -64 -132q-52 -89 -78 -122q-75 -98 -189 -163q-124 -70 -241 -70q-135 0 -225 113q-82 102 -81 236z" />
<glyph unicode="D" horiz-adv-x="1154" d="M-23 860q281 164 602 164q208 0 367 -122q175 -134 175 -338q0 -249 -193 -473q-200 -236 -449 -236q-98 0 -139 32q-9 7 -8 16q0 14 13 25.5t26 8.5q67 -14 68 -14q213 0 408 214q191 210 191 424q0 176 -143 283q-132 99 -320 99q-128 0 -270 -41q-147 -42 -246.5 -110 t-112.5 -68q-56 0 -56 50q0 36 87 86zM95 327v130q0 69 25 202q30 162 65 162q53 0 53 -57q0 -28 -12 -72q-16 -60 -17 -69q-28 -153 -29 -279q0 -413 144 -413h1q19 0 39 7q-44 -78 -79 -78q-99 0 -152 196q-38 138 -38 271z" />
<glyph unicode="E" horiz-adv-x="945" d="M-91 811q0 45 209 135q143 61 273 102q44 14 212 36q17 2 34 2q65 0 111 -26q50 -31 50 -83q0 -35 -25 -76q-13 -23 -33 -23q-15 -1 -20.5 9.5t-4.5 23.5q2 13 2 23q0 35 -25 47q-20 9 -78 9q-158 0 -445 -102q-13 -5 -104.5 -66.5t-103.5 -61.5q-52 0 -52 51zM7 392 q0 32 111 83q5 72 20 237q24 207 79 207q53 0 53 -63q0 2 -24 -104q-21 -92 -44 -255q22 5 122 39q76 25 122 26q145 0 167 -70l-8 -44h-8q-33 0 -52 24q-12 18 -69 18q-45 0 -152 -27q-120 -29 -127 -52q-9 -34 -9 -100q0 -22 1 -47l8 -156q2 -72 14 -103q21 -52 83 -52 q64 0 206 37q148 39 228 39q65 0 119 -40q60 -47 60 -121l-43 -24q-46 103 -167 103q-71 0 -208.5 -34.5t-208.5 -34.5q-110 0 -149 76q-26 50 -27 159q0 44 5 126q5 87 6 126q-50 -28 -65 -29q-43 0 -43 56z" />
<glyph unicode="F" horiz-adv-x="631" d="M-72 829q0 51 102 91q472 187 654 187q72 0 128 -25q76 -35 76 -106q0 -56 -42 -64q-25 14 -26 50q0 57 -151 57h-5q-74 0 -222 -37q-137 -35 -221 -70q-17 -8 -126 -70l-74 -41q-30 -18 -45 -22q-48 0 -48 50zM-57 344q0 41 49 65q42 15 84 29q10 60 18 154 q16 173 16 180q23 137 78 137q45 0 45 -50q0 -10 -13 -61q-34 -137 -40 -164q-19 -94 -20 -166q18 1 73 16q64 16 106 16h5q47 0 93 -14q64 -21 64 -64l-24 -26q-31 4 -71 22q-28 13 -47 13q-39 0 -111 -12q-92 -15 -92 -33q0 -514 112 -514q4 0 8 1q7 1 11 1q42 0 42 -34 q0 -16 -22 -27q-17 -10 -32 -10q-203 0 -206 536l-13 -6q-58 -31 -64 -32q-49 0 -49 43z" />
<glyph unicode="G" horiz-adv-x="1063" d="M-57 282q0 282 178 571q202 331 475 331q40 0 88 -23q57 -27 57 -64q0 -21 -14 -37.5t-32 -16.5q-9 0 -15 3q-61 37 -122 37q-103 0 -220 -114q-137 -134 -222 -323q-88 -196 -88 -381q0 -119 54 -221q63 -120 162 -120q216 0 426 266q190 242 210 453q1 12 1 22 q0 47 -24 47q-36 0 -366 -200q-67 -41 -82 -41q-46 0 -46 48q0 52 229 163q217 105 278 105q98 0 98 -118q0 -36 -10 -91q-5 -26 -14 -70q-50 -355 -50 -536q0 -159 52 -159h5q8 1 14 1q36 0 36 -33q0 -41 -54 -41q-146 0 -146 269q0 88 31 262q-122 -212 -227 -298 q-144 -122 -359 -122q-149 0 -234 155q-68 125 -69 276z" />
<glyph unicode="H" horiz-adv-x="1238" d="M-102 -119q0 3 8 32h40q21 -32 39 -32q90 0 138 225q28 132 34 273q-86 -44 -115 -44q-42 0 -42 45q0 36 57 60q13 5 87 25q7 -2 13 -3q3 61 3 92v14q-2 38 -7 203q-3 102 -43 261q-7 28 -7 49q0 61 55 61q41 0 68 -196q20 -146 21 -247q0 10 -1 -45v-77q1 -52 1 -72 l1 -9q217 68 342 81q211 20 212 20q15 0 43 -3q34 -3 43 -3q16 146 59 308q58 214 113 214q43 0 43 -58q0 -27 -10 -61q-21 -53 -47 -125q-20 -72 -39 -144q-20 -84 -23 -148q59 -27 81 -45q38 -32 38 -84q0 -27 -18.5 -50.5t-39.5 -23.5q-24 0 -32 38l20 41q-7 30 -57 41 q-4 -14 -4 -54t4 -107q6 -106 10 -145q26 -210 95 -210h1q19 0 33 19h46q8 -31 7 -34q0 -24 -33 -42q-28 -17 -53 -17q-140 0 -183 249q-11 61 -20 351q-35 5 -132 5q-162 0 -501 -96q-9 -121 -53 -333q-57 -269 -201 -269q-23 0 -54 17q-40 21 -40 53z" />
<glyph unicode="I" horiz-adv-x="718" d="M-69 992q0 59 236 125q204 58 292 58h3q66 0 145 -25q101 -33 101 -86q0 -52 -24 -52q-28 0 -43 41q-18 49 -151 49q-139 0 -276 -50q-151 -55 -231 -101q-7 -4 -13 -4q-39 0 -39 45zM290 24q-78 101 -78 409q0 210 30 426q4 62 19 183q4 17 21 37q20 24 43 24 q48 0 48 -48q0 -9 -2 -21q-74 -464 -75 -644q0 -83 8 -160q20 -187 83 -187q12 0 37 2.5t36 2.5q81 0 154 -24q101 -33 102 -96q0 -24 -15 -34q-9 -5 -44 -5q-15 84 -166 84q-175 0 -409 -102q-48 -20 -59 -20q-50 0 -50 49q0 59 317 124z" />
<glyph unicode="J" horiz-adv-x="686" d="M-433 -254v6q0 53 35 53q20 0 25 -35q12 -79 78 -137.5t145 -58.5q269 0 404 320q100 241 100 570q0 281 -45 586q-4 24 11 51q19 30 51 30q40 0 52 -40q4 -15 6 -70q8 -190 8 -330q0 -586 -120 -860q-53 -119 -146 -215q-115 -119 -230 -127q-74 -5 -73 -5 q-98 0 -196 78q-103 83 -105 184zM7 1045q0 61 245 120q207 50 309 50q57 0 106 -28q62 -36 62 -98q1 -14 -14 -34q-26 -33 -51 -2q1 9 1 17q0 50 -47 65q-23 8 -85 8q-142 0 -418 -118q-48 -21 -56 -21q-52 0 -52 41z" />
<glyph unicode="K" horiz-adv-x="748" d="M-71 295q0 251 32 490q39 296 103 297q50 0 50 -52v-8q-99 -254 -99 -625q0 -62 3 -168q1 -62 33 -172q39 -132 81 -132h4q35 0 60 -17q-6 -52 -56 -52q-100 0 -158 128q-41 92 -50 214q-3 36 -3 97zM24 511q30 23 45 25q21 0 43 1q97 11 232 117q116 91 194 192 q5 8 25 41q98 174 127 174h1q19 -1 32.5 -21t12.5 -34q-3 -48 -127 -215q-55 -75 -172 -166q-130 -100 -235 -138q16 -14 117 -149q83 -111 184 -207q139 -134 221 -138q18 -1 42 11q17 10 69 34l19 -32q-3 -41 -70 -66q-47 -17 -87 -17h-12q-138 7 -351 265 q-52 64 -154 181q-79 83 -150 100z" />
<glyph unicode="L" horiz-adv-x="886" d="M-78 -112q0 25 104 79q19 10 23 13q116 90 116 428q0 190 -8 281q-21 266 -22 266v-1q0 60 34 106q39 53 102 53q54 0 143 -67q96 -70 96 -126q0 -49 -49 -49q-35 0 -89 86.5t-110 86.5q-33 0 -33 -86q0 -12 1 -25q18 -387 18 -388v-297q0 -128 -65 -243q270 98 478 98 q87 0 180 -48q112 -58 112 -141q0 -42 -66 -42h-3l2 38v6q0 94 -241 95q-198 0 -431 -80q-6 -3 -127 -51q-101 -41 -113 -41q-52 0 -52 49z" />
<glyph unicode="M" horiz-adv-x="1658" d="M-124 747q0 47 136 154q133 105 178 105q91 0 114 -158q8 -49 8 -223q0 -57 -9 -229q204 601 371 601q114 0 146 -250q13 -94 13 -343q26 119 43 181q45 169 131 330q123 228 239 228q140 0 158 -301l23 -393q17 -294 17 -300q27 -238 96 -238q17 0 39.5 24.5t36.5 24.5 q9 0 18 -7q21 -15 13 -45q-8 -28 -53 -50q-40 -19 -65 -19q-82 0 -122 77q-69 135 -83 823q-7 329 -86 329q-76 0 -194 -283q-64 -154 -124 -369q-73 -256 -73 -386v-16v-9q0 -29 -11 -59q-17 -43 -49 -43q-20 0 -36 24q-12 20 -12 36q0 60 9 182t9 184q0 198 -14 334 q-25 256 -82 256q-55 0 -150 -216q-173 -396 -208 -618q-4 -61 -20 -178q-11 -48 -61 -48h-2q-52 0 -51 58q0 -5 16 138q36 324 36 699q0 175 -45 175h-1q-33 0 -95 -72q-41 -54 -82 -106q-48 -59 -71 -60q-51 0 -51 56z" />
<glyph unicode="N" horiz-adv-x="1093" d="M-101 729q0 53 131 154q126 97 179 97h1q112 0 111 -159l-5 -387q34 104 106 313q128 337 257 337q88 0 121 -136q8 -33 24 -203q6 -118 33 -410q40 -320 103 -320q9 0 42 24q12 9 31 14l32 -16q-2 -41 -43 -73q-35 -27 -64 -27q-104 0 -153 185q-29 112 -48 373 q-8 134 -33 368q-24 152 -71 152q-33 0 -136 -265q-112 -291 -145 -399q-69 -230 -69 -420q0 -70 -55 -70q-54 0 -54 68q0 60 12.5 183.5t12.5 184.5q0 68 7.5 205t7.5 205q0 193 -42 193q-52 0 -197 -176q-32 -40 -42 -45q-6 -3 -12 -3q-17 0 -30 19q-13 17 -12 34z" />
<glyph unicode="O" horiz-adv-x="913" d="M-55 312q0 117 40 245q28 81 58 162v19q0 181 129 311q120 123 277 123q15 0 30 -1q157 -11 259 -184q88 -148 88 -306q0 -278 -132 -519q-160 -292 -423 -292q-178 0 -261 148q-64 113 -65 294zM34 308q0 -138 50 -238q61 -123 174 -123q226 0 360 256q112 213 112 471 q0 141 -69 266q-81 143 -208 155q-11 1 -21 1q-104 0 -200 -92q-104 -100 -111 -218q-2 31 32 71.5t63 40.5q19 0 33 -15.5t14 -33.5q0 -27 -64.5 -103t-64.5 -86q0 -7 20 -24.5t28 -17.5q28 3 34.5 4.5t12.5 1.5q20 0 21 -19q0 -50 -61 -50q-55 0 -91 33q-63 -149 -64 -280 z" />
<glyph unicode="P" horiz-adv-x="1113" d="M-99 875q0 17 53 65q43 39 71 59q209 138 316 180q156 62 370 62q179 -1 281 -97q101 -95 101 -245v-6q-1 -146 -154 -305q-140 -145 -288 -192.5t-215 -47.5q-52 0 -97 26q-56 31 -56 87q0 31 21 54h45v-9q0 -72 65 -72q193 0 391 157q205 163 205 345q0 119 -107 181 q-88 51 -221 51h-5q-179 0 -362 -101q-114 -62 -307 -220q-36 -29 -47 -30q-20 0 -40 17.5t-20 40.5zM105 420q0 279 23 450q10 79 58 79q53 0 53 -55q0 -32 -12 -82q-15 -66 -16 -82q-24 -177 -25 -333q0 -493 157 -494q8 0 16 1l30 -29q-14 -45 -52 -45q-130 0 -186 161 q-38 107 -38 260q0 28 -4 84.5t-4 84.5z" />
<glyph unicode="Q" horiz-adv-x="913" d="M-55 316q0 117 40 245q28 81 58 162v19q0 181 129 311q121 124 279 124q14 0 28 -1q157 -11 259 -184q88 -148 88 -307q0 -191 -71 -386q-82 -223 -224 -334q83 -51 155 -51q35 0 38 6q0 -1 0 3q0 25 3 35q6 17 22 29q50 -18 50 -63q0 -42 -48 -72q-39 -25 -76 -26 q-65 0 -192 84l-19 12q-90 -48 -193 -48q-178 0 -261 147q-64 113 -65 295zM34 313q0 -138 50 -239q61 -123 174 -123q66 0 126 24q-93 58 -174 58h-3q-73 0 -73 46q0 49 77 49q91 0 247 -113q132 91 207 298q65 179 65 365q0 141 -69 266q-81 143 -208 155q-11 1 -21 1 q-105 0 -200 -92q-105 -100 -111 -217q-2 30 32 71t63 41q19 0 33 -16t14 -33q0 -28 -64.5 -104t-64.5 -86q0 -7 20 -24.5t28 -17.5q28 3 34.5 4.5t12.5 1.5q20 0 21 -19q0 -50 -61 -50q-55 0 -91 34q-63 -150 -64 -280z" />
<glyph unicode="R" horiz-adv-x="1083" d="M-115 868q0 11 9 19q132 130 375 236q256 111 448 112q175 0 271 -83t96 -225q0 -17 -1 -35q-12 -145 -177 -304q-150 -144 -300 -191q-39 -13 -115 -34q23 -33 71 -98q99 -131 232 -248q84 -74 165 -75q19 0 44 13q17 11 70 38l19 -32q-5 -42 -72 -69q-53 -23 -99 -23 q-168 0 -348 250q-51 70 -121 146q-77 82 -103 89q-77 20 -77 58q0 3 1 7q4 30 61 31q42 0 72 -13q194 19 384 170q201 160 214 333q1 10 1 20q0 102 -84 155q-75 48 -207 48h-5q-285 0 -679 -287q-78 -58 -84 -58q-19 0 -40 16t-21 34zM159 252q3 308 65 616q17 78 64 78 q48 0 48 -53q0 -29 -16 -87q-9 -26 -23 -79q-33 -155 -46 -338q-7 -87 -7 -158q0 -330 122 -330h1q8 0 16 1l29 -30q-17 -45 -54 -45q-199 0 -199 405v20z" />
<glyph unicode="S" horiz-adv-x="826" d="M205 960q255 200 439 200q151 0 151 -189q0 -29 -18 -67q-20 -45 -47 -45q-18 0 -34.5 17.5t-13.5 36.5q10 73 9 71q0 91 -63 91q-116 0 -357 -199q-244 -203 -244 -313q0 -47 96 -76q46 -15 244 -49q174 -30 252 -68q125 -59 125 -169q0 -129 -147 -242 q-138 -106 -267 -106h-44q-83 0 -157 50q-85 58 -85 143q0 22 14 60q17 45 34 45q35 0 35 -34q0 -14 -6.5 -35.5t-6.5 -24.5q0 -51 52 -83q46 -28 110 -29q131 0 249 77q129 84 129 199v2q0 62 -105 98q-54 18 -236 47q-85 13 -251 52q-128 44 -128 124q0 202 271 416z" />
<glyph unicode="T" horiz-adv-x="848" d="M-115 909q0 48 229 133q167 61 287 90q153 38 294 38q95 0 183 -27q125 -38 125 -113q0 -59 -42 -86q-19 -13 -30 -13q-21 0 -15 38q15 37 14 42q0 79 -279 79q-188 0 -441 -108q-60 -30 -169 -83q-81 -37 -103 -37q-53 0 -53 47zM340 340v164q0 1 25 404q9 137 74 137h2 q50 0 50 -58q0 -32 -17 -88q-20 -71 -22 -88q-25 -142 -25 -315q0 -87 6 -181q5 -83 29 -248q20 -83 40 -115q30 -48 88 -52q24 -3 24 -21q1 -14 -11 -23q-19 -18 -44 -18q-120 0 -179 205q-40 139 -40 297z" />
<glyph unicode="U" horiz-adv-x="995" d="M-51 865q3 42 93 117q72 61 136 96q41 22 87 22q42 0 68 -51q19 -37 19 -77q0 -128 -120 -492q-107 -325 -107 -484q0 -83 17 -83q155 0 438 601q44 94 90 258q14 36 29 112q5 100 10 128q18 88 67 88q52 0 52 -57q0 -25 -12 -72q-16 -64 -16 -71q-15 -80 -23 -147 q-9 -79 -9 -291q0 1 19 -279q15 -209 86 -209h1q32 0 48 49q7 23 25 24q30 0 30 -49q1 -38 -29 -65q-30 -28 -69 -28q-121 0 -171 231q-28 135 -28 317q0 38 4 95q-77 -223 -225 -443q-177 -264 -311 -264q-60 0 -92 48q-26 40 -27 95q0 116 69 370l108 368q56 199 56 263 q0 40 -26 40q-35 0 -115 -84q-20 -28 -65 -81q-38 -39 -57 -39q-29 0 -50 44z" />
<glyph unicode="V" horiz-adv-x="1014" d="M-5 904q92 85 132 100q45 17 76 17h4q87 0 147 -183q37 -113 80 -371q12 -83 48 -290q46 -226 75 -227q35 0 70 150q65 282 158 565q142 437 226 437q20 0 40.5 -20.5t9.5 -37.5q-73 -105 -126 -244q-116 -305 -170 -527q-41 -168 -96 -356q-19 -63 -101 -63 q-85 0 -152 244q-20 69 -66 318q-99 532 -176 532q-46 0 -124 -111t-108 -111q-46 0 -46 44q0 42 99 134z" />
<glyph unicode="W" horiz-adv-x="1521" d="M-142 633q3 73 129.5 201.5t193.5 128.5q129 0 171 -216q20 -103 20 -312q0 -83 -8 -257q89 254 195 466q138 274 211 274q62 0 63 -64q0 -19 -16 -45q-4 -29 -4 -77q0 -239 69 -501q83 -315 200 -315q132 0 217 302q66 233 66 418q0 188 -39 328q-59 211 -191 211h-1 q-41 0 -88 -50q-28 0 -32 2t-17 26q4 41 71 71q55 24 94 24q134 0 222 -172q69 -137 77 -281q1 -22 1 -48q0 -286 -88 -562q-110 -344 -289 -344q-186 0 -285 386q-69 272 -70 542q0 5 2 16q-40 -37 -191 -367q-89 -195 -147 -423q-10 -40 -13 -71q-9 -98 -48 -109 q-11 -2 -21 -2q-50 0 -50 54v8q20 268 21 267q0 325 -7 421q-23 323 -101 323q-43 0 -112 -92q-46 -66 -91 -134q-39 -53 -75 -55z" />
<glyph unicode="X" horiz-adv-x="991" d="M-73 -49q0 77 93 235q63 106 175 256q94 127 94 129q0 15 -121 213l-156 252q-55 93 -55 112q0 56 54 56h2q33 0 59 -43q1 -1 76 -153q64 -129 93 -183q55 -100 106 -175q77 92 258 304q235 273 281 273q17 0 34 -15t17 -34q0 -21 -13 -36q-144 -148 -289 -295 q-238 -246 -238 -275q0 -21 147 -217q183 -245 296 -245q26 0 49 27.5t39 27.5q33 0 34 -36q0 -47 -59 -77q-47 -23 -95 -24q-131 0 -271 179l-202 286q-142 -197 -196 -284q-118 -196 -118 -311q0 -20 37 -66l-24 -34q-48 6 -81 67q-26 49 -26 86z" />
<glyph unicode="Y" horiz-adv-x="887" d="M-82 918q0 46 154 158t217 112q110 0 110 -125q0 -114 -77 -379q-59 -197 -118 -395q-35 -138 -35 -207q0 -91 41 -91q67 0 243 300q305 521 316 796q0 20 -1 52q-1 40 0 51q0 57 45 57h2q55 0 96 -293q30 -216 30 -300q0 -391 -36 -623q-54 -346 -206 -588 q-162 -257 -429 -257q-101 0 -194 83q-90 80 -128 195q-4 24 -3 35q5 31 32 17q15 -7 41 -48q119 -194 245 -195q278 0 440 384q110 260 133 562q17 218 17 333v13q0 179 -35 367q-15 -44 -65 -213q-83 -275 -251 -532q-173 -266 -303 -266q-123 0 -123 159q0 99 78 368 q45 146 114 388q35 137 35 195q0 76 -31 76q-33 0 -162.5 -119t-147.5 -119q-44 0 -44 49z" />
<glyph unicode="Z" horiz-adv-x="949" d="M-84 -36q0 77 127 214q77 84 180 180q95 89 413 356q354 298 377 298q18 0 37 -15t19 -35t-176 -160q-894 -713 -894 -820q0 -14 24 -13q6 0 74 21q126 41 379 119q216 62 338 63q101 0 187 -59q95 -66 95 -168q0 -37 -28 -94q-16 -18 -32 -18q-26 0 -27 33q0 12 6 25 q8 20 8 49q0 64 -80 106q-70 36 -153 36q-137 0 -290 -45q-45 -14 -276 -97q-201 -73 -223 -74q-85 0 -85 98zM63 932q0 29 51 49q83 30 213 54q212 37 215 38q230 50 365 50h5q80 0 140 -29q79 -39 79 -113q0 -46 -28 -88q-14 -20 -32 -20q-26 0 -21 32q14 85 16 85v-1 q0 57 -156 57h-5q-106 0 -293 -42q-113 -26 -395 -106q-73 -20 -100 -20q-54 0 -54 54z" />
<glyph unicode="[" horiz-adv-x="718" d="M137 1220q9 44 81 61q153 37 255 35q80 -1 152 -26q95 -32 95 -85q0 -52 -25 -51q-28 0 -44 41q-18 49 -151 48q-138 0 -276 -49q-38 -15 -60 -10q-32 6 -27 36zM217 449q0 299 37 551q3 62 19 183q3 17 21 37q20 24 41 24q58 0 46 -69l-43 -274q-41 -268 -41 -556 q0 -343 90 -343q13 0 37.5 2.5t36.5 2.5q81 0 153 -24q101 -33 102 -96q0 -24 -14 -34q-9 -5 -45 -5q-15 84 -165 84q-56 0 -137 -18q-11 -3 -21 -3q-54 0 -54 42q0 16 14 27q-76 101 -77 469z" />
<glyph unicode="\" />
<glyph unicode="]" horiz-adv-x="718" d="M-72 1267q0 7 2 13q16 50 278 50q277 0 303 -77q13 -37 -27 -37q-11 0 -25 4q-121 34 -242 30q-161 -6 -250 -25q-39 -9 -39 42zM-31 -133q0 57 317 123q-68 97 -69 417q0 276 44 617q4 62 20 182q4 18 20 37q20 24 42 25q58 0 47 -68l-44 -274q-51 -341 -51 -611 q0 -307 87 -307q36 0 36 -33q0 -40 -68 -55q-158 -34 -273 -83q-48 -21 -58 -21q-50 0 -50 51z" />
<glyph unicode="^" />
<glyph unicode="_" />
<glyph unicode="`" horiz-adv-x="610" d="M81 931q0 28 40 42q39 13 53 -4q61 -77 239 -162q34 -16 18 -40q-13 -21 -44 -10q-121 47 -161 65q-116 52 -138 89q-7 11 -7 20z" />
<glyph unicode="a" horiz-adv-x="715" d="M-40 -24q0 122 131 328q127 198 277 326q120 102 194 102q27 0 48 -14q37 -23 38 -99q0 -90 -62 -95q-43 -3 -43 30q0 5 2 9q18 44 18 78q0 25 -5 24q-97 -18 -313 -298t-216 -387q0 -37 33 -37q85 0 267 220q126 152 137 169q56 77 64 141q5 44 46 44q50 0 50 -41 q0 -8 -2 -17q-48 -251 -48 -305q0 -99 44 -111q16 -4 33 6q15 9 17 17q10 42 49 42q23 0 23 -25q0 -11 -6 -26q-30 -76 -109 -77q-22 0 -44 9q-92 33 -92 213q0 24 1 44q-97 -129 -213 -235q-149 -137 -235 -137q-28 0 -49 16q-35 26 -35 86z" />
<glyph unicode="b" horiz-adv-x="832" d="M-43 223q0 170 90 519q93 359 146 359q17 0 37 -14q24 -16 25 -37q0 -6 -3 -12q-99 -254 -116 -306q-101 -310 -102 -540q0 -48 12 -88q99 168 247 297q178 156 332 156q51 0 98 -28q61 -38 61 -103q0 -153 -221.5 -371.5t-365.5 -218.5q-119 0 -119 89q0 49 47 97 q12 12 31 12q21 0 21 -15q0 -12 -12 -31q-26 -38 -27 -53q0 -25 38 -26q122 0 328 208q205 205 205 315q0 59 -80 60q-193 0 -479 -375l-3 -4l-8 -14q-61 -103 -91 -103q-64 0 -84 89q-7 37 -7 138z" />
<glyph unicode="c" horiz-adv-x="659" d="M-28 130q0 143 128 349q148 237 314 238q28 0 83 -25q71 -31 74 -76q2 -20 -14.5 -31.5t-29.5 -11.5q-22 0 -55.5 35.5t-66.5 35.5q-120 0 -245 -222q-110 -196 -110 -306q0 -123 103 -123q102 0 203 67q93 62 159 165q6 11 16 11q12 0 22.5 -15.5t7.5 -25.5 q-8 -31 -109 -131q-93 -91 -114 -101q-97 -53 -121 -53q-3 0 -25 -2.5t-24 -2.5q-101 0 -153 74q-43 60 -43 151z" />
<glyph unicode="d" horiz-adv-x="841" d="M-41 -38q0 82 87 252q92 182 209 308q139 149 256 149q45 0 92 -33q20 107 57 310q36 196 81 196q18 0 36 -15.5t18 -36.5q0 -5 -25 -86q-123 -420 -123 -806v-6q0 -224 67 -224q4 2 14.5 8t41.5 21q17 -17 17 -33q0 -22 -30 -41q-26 -17 -50 -17q-141 0 -141 326 q0 29 2 70l-36 -45q-313 -397 -456 -397h-19q-98 0 -98 100zM27 -35q0 -27 22 -27q85 0 287 203q182 184 218 264q21 48 21 108q0 30 -16 58t-37 33q-7 1 -15 1q-107 0 -292 -263q-187 -266 -188 -377z" />
<glyph unicode="e" horiz-adv-x="610" d="M-37 134q8 146 156 362q159 232 290 233q44 0 67 -41q17 -28 17 -60q0 -99 -80 -223q-96 -149 -220 -149q-59 0 -90 25l-4 3q-18 -16 -37.5 -95t-19.5 -137q0 -76 100 -76q97 0 227 112q126 109 174 225h31q19 -18 13 -33q-57 -164 -189 -272q-126 -104 -253 -105 q-94 0 -141 65q-42 54 -42 143q0 11 1 23zM127 338q0 -11 45 -13h5q74 0 160 109q88 110 88 197q0 37 -28 29q-37 -9 -67 -45q-203 -238 -203 -277z" />
<glyph unicode="f" horiz-adv-x="483" d="M-49 308q0 16 8 23q25 23 149 80l19 8q29 332 53 428q72 290 249 290h1q62 0 110 -69q43 -61 43 -124q0 -75 -33 -89q-20 7 -26 37l-6 50q-5 41 -34 83q-32 48 -69 48q-101 0 -157 -245q-28 -124 -43 -380q12 2 53 11q34 8 55 8q86 0 113 -65q5 -12 5 -25q0 -21 -14 -26 q-15 -5 -36 20q-28 33 -69 33q-29 0 -68 -14t-50 -29q-6 -10 -6 -54q0 -59 14 -211t14 -174q0 -64 -52 -64q-47 0 -47 55q0 7 1 14q1 17 1 14q0 47 -9 392q-31 -16 -101 -58q-25 -16 -34 -16q-34 0 -34 49z" />
<glyph unicode="g" horiz-adv-x="750" d="M-61 -335q0 57 38 57q27 0 27 -33v-8q0 -106 73 -193q76 -89 170 -89q193 0 285 286q59 182 60 364q0 363 -64 363q-4 0 -45 -63q-122 -184 -169 -239q-125 -145 -229 -145q-56 0 -87 42q-27 36 -27 88q0 164 208 423.5t340 259.5q56 0 87 -59q25 -45 25 -92 q0 -82 -45 -82q-48 0 -48 75q0 11 1 24q1 8 1 15q0 46 -23 46q-72 0 -196 -141q-91 -103 -144 -193q-40 -47 -81 -132q-50 -99 -50 -159q0 -42 14 -42q71 0 186 123q42 45 186 227q97 123 125 123q65 0 99 -193q22 -131 23 -256q0 -311 -123 -528.5t-293 -217.5 q-123 0 -223.5 112.5t-100.5 236.5z" />
<glyph unicode="h" horiz-adv-x="676" d="M-13 118q0 203 64 587q68 421 126 421q49 0 48 -47q0 -1 -34 -108q-36 -113 -52 -199q-61 -355 -68 -584l9 21q156 384 287 384q109 0 137 -319q5 -76 23 -208q16 -81 43 -81q23 0 42 17.5t27 17.5q28 0 28 -29q0 -26 -41 -49q-35 -19 -57 -18q-120 0 -152 317 q-6 75 -22 206q-14 80 -35 80q-57 0 -145 -180q-120 -241 -139 -452q-1 -13 -18 -27.5t-34 -14.5q-16 0 -22 15q-15 37 -15 250z" />
<glyph unicode="i" horiz-adv-x="307" d="M3 222q0 87 21 214q32 183 88 183q44 0 44 -50q0 -23 -27 -88q-28 -70 -41 -239q1 -40 1 -64t-1 -32q13 -60 25 -121q25 -80 75 -80q12 0 16 4q14 19 38 31q20 -18 20 -34q0 -26 -34 -45q-28 -17 -50 -17q-93 0 -141 144q-34 99 -34 194zM68 901q0 20 15 39.5t39 19.5 q51 0 51 -56q0 -57 -53 -57q-21 0 -36.5 19t-15.5 35z" />
<glyph unicode="j" horiz-adv-x="358" d="M-492 -367q0 47 33 47q34 0 31 -37q-1 -8 -1 -17q0 -88 69 -165q74 -84 172 -84q210 0 308 325q62 205 62 418q0 269 -47 450q-6 20 4 47q13 36 49 36q75 0 75 -451q0 -156 -7 -222q-25 -251 -133 -451q-122 -228 -276 -228q-140 0 -239.5 95.5t-99.5 236.5zM153 814 q0 40 42 40q58 0 58 -35q0 -51 -45 -51q-55 0 -55 46z" />
<glyph unicode="k" horiz-adv-x="690" d="M-33 332q0 83 49 410q60 402 118 402q10 0 29 -16q22 -19 22 -38q0 -5 -2 -9q-130 -374 -130 -737v-6q0 -196 43 -339q20 -67 49 -75q43 -12 43 -34q0 -12 -12 -22.5t-25 -7.5q-116 26 -158 195q-26 104 -26 277zM72 251q0 6 62 66q71 69 131 149q71 95 131 246 q20 51 47 51q50 0 50 -57q0 -115 -297 -426q213 -40 306 -85q174 -83 174 -237q0 -19 -12 -55q-16 -47 -36 -52l-17 4l2 -2q-16 8 -15 22q0 9 8.5 29t8.5 35q0 136 -179 203q-124 47 -253 47q-2 0 -32 -1t-36 -1q-43 0 -43 64z" />
<glyph unicode="l" horiz-adv-x="326" d="M5 320q0 255 29 515q33 288 74 288q51 0 51 -55q-1 -9 -6 -34l-12 -69q-19 -103 -25 -159q-27 -232 -27 -527q0 -356 125 -356q22 0 34 18h22l18 -18v2l1 -3q2 -8 2 -19q-32 -41 -82 -41h-2q-75 0 -130 85q-63 100 -71 282q-1 41 -1 91z" />
<glyph unicode="m" horiz-adv-x="1170" d="M-72 28q0 178 8 307q8 119 30 202q23 90 54 90q21 0 39 -15.5t14 -30.5q-58 -208 -59 -427q105 189 146 253q119 182 186 182q77 0 77 -174v-18q-1 -20 -6 -93q-4 -55 -4 -91v-14q0 -75 14 -114q35 11 122 127q71 98 121 181q129 222 187 222q59 0 74 -112q5 -69 15 -212 q18 -260 92 -263q28 -1 50 29t35 30q27 0 28 -29q0 -40 -49 -69q-38 -21 -65 -21q-84 0 -138 122q-42 95 -42 172v-3l2 98q1 25 1 46q0 42 -3 69q-5 57 -19 57q-3 0 -50 -75q-159 -248 -172 -265q-133 -183 -207 -183q-75 0 -82 163v20q0 64 8 264q2 54 -8 53 q-31 0 -164 -241q-136 -245 -144 -334q-3 -36 -45 -36q-20 0 -35 62q-11 48 -11 71z" />
<glyph unicode="n" horiz-adv-x="698" d="M-46 -43q1 16 63 414q3 50 9 137q8 80 59 80q29 0 40 -21l12 -44l-58 -291l17 29q210 355 297 355q83 0 110 -122q9 -93 18 -185q16 -152 19 -172q22 -137 66 -137q19 0 50 34l36 -12q2 -38 -33 -62q-26 -19 -49 -19q-140 0 -173 317q-6 75 -21 206q-11 80 -27 80 q-33 0 -163 -205t-184 -379q-14 -47 -48 -47q-40 0 -40 37v7z" />
<glyph unicode="o" horiz-adv-x="612" d="M-15 109q0 150 72 325.5t134 175.5q57 0 57 -48q0 -14 -32 -57q-154 -203 -155 -379q0 -152 77 -152q115 0 225 209q96 179 96 290q0 161 -79 161q-60 0 -128 -64l-15 8q-14 8 -14 24q0 33 71 67q59 28 86 28q158 0 164 -244v-6q0 -117 -104 -305q-125 -225 -272 -238 q-8 -1 -16 -1q-74 0 -120 59q-47 59 -47 147z" />
<glyph unicode="p" horiz-adv-x="688" d="M-9 -173q0 208 48 728q14 142 83 142q44 0 44 -47q0 -6 -1 -12l-48 -243q200 290 397 290q130 0 130 -186q0 -153 -137 -339q-141 -193 -272 -193q-98 0 -98 100q0 31 20 79h41q2 -20 -2 -42q-4 -25 -4 -40q0 -22 26 -22q124 0 239 197q101 173 102 283q0 98 -53 98 q-105 0 -247 -173q-129 -157 -149 -260q-37 -176 -39 -408v-25q0 -302 96 -302q1 0 10 3.5t49 17.5v-37q0 -19 -31 -32q-25 -12 -37 -11q-82 8 -127 119q-34 86 -38 203q-2 55 -2 112z" />
<glyph unicode="q" horiz-adv-x="696" d="M-65 59q0 145 233 424q230 277 339 277q93 0 93 -124q0 -90 -54 -90q-43 0 -43 49q0 7 1.5 13t12 37.5t10.5 35.5q0 13 -12 12q-43 0 -214 -181q-68 -72 -163 -215q-126 -185 -126 -264q0 -10 14 -10q76 0 263 175q178 167 202 240q9 34 17 67q16 38 53 38q54 0 53 -58 h-17q20 4 16 -6l-5 -20q-34 -118 -65 -253q-70 -313 -70 -513q0 -63 18 -116q26 -85 85 -85q48 0 72.5 47t37.5 47q30 0 30 -32q0 -52 -51 -89q-45 -34 -90 -34q-103 0 -154 110q-35 77 -35 173q0 174 85 577l1 6q-272 -351 -420 -351h-21q-44 0 -73 43q-23 35 -23 70z" />
<glyph unicode="r" horiz-adv-x="522" d="M-12 -9q18 197 18 328q0 135 -18 306q-2 20 16.5 40.5t38.5 20.5q32 0 47 -33q11 -23 8 -43q-12 -96 -12 -162v-10q121 308 259 308q92 0 108 -84q2 -9 2 -16q0 -35 -36 -35q-14 0 -19 12q-4 9 -8 25l-2 10q-4 20 -25 20q-48 0 -122 -102q-87 -120 -122 -218 q-35 -100 -35 -228v-14q0 -5 7 -159q0 -19 -19 -35t-38 -16q-49 0 -49 67q0 8 1 18z" />
<glyph unicode="s" horiz-adv-x="531" d="M-43 338q0 97 151.5 244.5t256.5 147.5q29 0 71 -22q50 -27 50 -60q0 -42 -34 -42q-6 0 -39 17.5t-49 18.5h-7q-65 0 -179 -97q-122 -104 -122 -179q0 -41 142 -41q275 0 275 -153q0 -108 -122 -194q-111 -78 -221 -78q-49 0 -91 30q-49 34 -49 89q0 22 20 52 q22 35 48 35q7 0 13 -3q-4 -34 -12 -52q-5 -11 -5 -23q0 -44 52 -44q81 0 186 53q116 59 116 123q0 40 -40 66q-33 21 -73 24l-188 6q-47 2 -90 20q-59 23 -60 62z" />
<glyph unicode="t" horiz-adv-x="523" d="M-6 405q0 34 161 110q10 2 20 5q7 66 21.5 197.5t64.5 131.5q42 0 45 -54l-40 -243q44 11 106 11q28 0 67 -21q50 -27 50 -64q0 -7 -3 -13l-1 -3q0 2 -4 -8q-11 -4 -8 -4h-2q-6 -3 -14 -3q-6 0 -15 10q-20 47 -65 47q-16 0 -35 -6q-41 -11 -84 -37q0 -5 -1 -15 q-8 -64 -9 -145q0 -44 3 -93q10 -258 116 -259q30 0 55.5 31.5t34.5 31.5q31 0 32 -30q0 -35 -58 -66q-48 -25 -71 -25q-89 0 -142 96q-37 69 -45 153q-9 79 -9 157q0 69 7 137q-55 -20 -132 -76q-10 -8 -19 -8q-26 0 -26 55z" />
<glyph unicode="u" horiz-adv-x="673" d="M24 375q64 263 109 266q21 0 41 -13.5t20 -29.5q-1 -8 -7 -25l-17 -44q-124 -334 -124 -469q0 -81 27 -81h1q35 0 109 90q80 98 158 252q88 172 89 261q1 31 19 57.5t43 26.5q49 0 49 -49q0 -8 -17 -95.5t-17 -166.5q0 -306 95 -306q22 0 48 26q12 12 35 26 q21 -19 21 -30q0 -35 -48 -62q-39 -22 -63 -23q-152 0 -178 333l-1 17q-104 -218 -135 -267q-104 -161 -221 -161q-91 0 -91 180q0 57 55 287z" />
<glyph unicode="v" horiz-adv-x="617" d="M-61 575q0 20 20 34q17 11 32 10q38 0 127 -211q5 -11 110 -286q30 -79 27 -79l34 88q100 256 135 324q112 217 220 218q43 0 43 -37q0 -18 -25 -24q-7 -2 -16 2h-2h-2q-59 0 -175 -245l-144 -340q-53 -122 -78 -122q-32 0 -68 110q-21 70 -79 232q-28 70 -91 188 q-32 60 -65 121q-4 9 -3 17z" />
<glyph unicode="w" horiz-adv-x="1000" d="M-17 134q6 104 24 293q21 157 72 157q45 0 45 -57q0 -6 -3 -18q-62 -284 -62 -409q-3 -36 -3 -62q0 -58 16 -58q55 0 152 201q64 132 109 258q12 42 33 117q20 69 49 69q14 0 33 -11q24 -16 22 -38q-1 -11 -1 -24q0 -83 50 -233q70 -212 175 -212q51 0 103 143t52 280 q0 31 -3 58q-16 129 -71 129q-3 0 -19.5 -6t-22.5 -6q-42 0 -42 16q0 17 34 35.5t63 18.5q76 0 117 -117q31 -87 31 -183q0 -92 -66 -249q-81 -195 -181 -195q-94 0 -185 153q-59 101 -105 244q-36 -93 -119 -288q-116 -246 -197 -246h-1q-59 0 -85 107q-15 61 -15 111 q0 11 1 22z" />
<glyph unicode="x" horiz-adv-x="771" d="M-28 -40q0 90 114 264q108 165 114 165v-1q0 1 -112.5 138.5t-112.5 181.5q0 14 11 29.5t24 15.5q29 0 133.5 -144t112.5 -144q1 0 138 189t173 189q20 0 32 -22q11 -18 11 -33q0 -21 -150.5 -190t-150.5 -192t130.5 -146t158.5 -132q5 -1 29 -12q19 -7 30 -7q28 0 64 32 q36 5 36 -26q0 -25 -55 -51q-44 -21 -61 -21q-127 0 -379 291q-57 -58 -132 -193q-83 -148 -83 -214q0 -20 16 -62l-38 -13q-16 14 -34.5 52t-18.5 56z" />
<glyph unicode="y" horiz-adv-x="689" d="M-216 -318q0 41 34 41q19 0 28 -29q6 -21 12 -44q29 -81 91 -134q65 -56 147 -62q14 -1 28 -1q188 0 300 230q98 199 98 442q0 167 -48 412q-83 -214 -138 -317q-111 -210 -216 -243q-19 -6 -35 -6q-94 0 -94 144q0 133 69 374q73 254 128 258q20 2 41 -14t21 -32 q0 -5 -2 -9q-58 -90 -108 -224q-69 -188 -69 -345q0 -83 25 -83q30 0 98 103q33 50 66 112q138 217 161 358q5 31 5 58q0 17 -2 32q-1 8 -1 15q0 51 49 51q53 0 63 -98l1 -13q23 -217 54 -269q17 -28 17 -269q0 -221 -97 -442q-132 -304 -373 -304q-141 0 -254 120 q-98 103 -99 188z" />
<glyph unicode="z" horiz-adv-x="766" d="M-52 -10q0 56 101 146q150 134 331 266q188 139 198 148l11 9q-15 1 -33 1q-96 0 -256 -28q-132 -23 -202 -44q-5 -2 -11 -2q-59 0 -59 47q0 25 39 45q31 16 49 16q59 0 421 34q133 0 133 -67q0 -33 -87 -107q-60 -46 -121 -92q-94 -69 -279 -210q-139 -110 -152 -154 q10 0 29 -2q355 97 438 97q69 0 131 -27q87 -36 87 -107q0 -8 -15 -37q-16 1 -31 11q-14 9 -14 20q0 68 -127 68q-98 0 -426 -109q-64 -21 -76 -21q-43 0 -43 43q0 5 1 11v5q-37 21 -37 40z" />
<glyph unicode="{" />
<glyph unicode="|" />
<glyph unicode="}" />
<glyph unicode="~" horiz-adv-x="612" d="M99 704q0 6 28 45q26 36 35 46q20 22 46 33q19 8 37 8q36 0 99 -47q57 -41 86 -30q12 5 43 30q28 23 41 23q14 0 19 -13q7 -14 -2 -28q-61 -87 -126 -86q-25 -1 -48 13q-29 19 -60.5 38.5t-55.5 19.5q-31 0 -65 -29l-26 -28q-19 -18 -30 -17q-20 0 -21 22z" />
<glyph unicode="&#xa0;" />
<glyph unicode="&#xa1;" horiz-adv-x="407" d="M81 -146q0 39 2 64q6 64 41 139q43 90 101 114q16 7 28 6q19 0 19 -14q2 -15 -15 -31q-84 -60 -84 -275q0 -356 87 -596q1 -5 1 -10q0 -19 -15.5 -34.5t-32.5 -15.5q-54 0 -96 247q-36 216 -36 406zM192 348q0 17 25.5 33t42.5 16q59 0 60 -45q-1 -55 -63 -55 q-65 0 -65 51z" />
<glyph unicode="&#xa2;" horiz-adv-x="666" d="M-64 605q0 106 86 274q96 186 218 266q22 93 49 158q9 21 37 21q20 0 34 -12.5t7 -31.5q-18 -41 -33 -94q22 5 45 5q28 0 82 -25q71 -31 74 -75q2 -20 -16 -33q-15 -11 -28 -11q-22 0 -55.5 35.5t-65.5 35.5q-28 0 -58 -14q-73 -295 -83 -617q147 55 250 213q7 10 15 10 q13 0 24 -15t8 -26q-9 -31 -111 -131q-93 -91 -112 -101q-24 -15 -75 -41q1 -98 12 -165q6 -36 -22 -36q-24 0 -30 33q-10 65 -15 156q-42 -5 -41 -5q-101 0 -153 74q-43 60 -43 152zM14 591q0 -124 103 -124q28 0 54 4q-2 285 46 558q-81 -90 -146 -240q-57 -134 -57 -198z " />
<glyph unicode="&#xa3;" />
<glyph unicode="&#xa4;" />
<glyph unicode="&#xa5;" />
<glyph unicode="&#xa6;" />
<glyph unicode="&#xa7;" />
<glyph unicode="&#xa8;" />
<glyph unicode="&#xa9;" />
<glyph unicode="&#xaa;" />
<glyph unicode="&#xab;" />
<glyph unicode="&#xac;" horiz-adv-x="362" d="M70 86q0 114 31 255q22 90 63 284q6 32 42 32q45 0 38 -39q-9 -53 -64 -276q-39 -156 -39 -258q0 -54 9 -105q7 -39 54 -77q13 -10 13 -21q0 -20 -26 -29q-25 -10 -47 7q-74 56 -74 227z" />
<glyph unicode="&#xad;" />
<glyph unicode="&#xae;" />
<glyph unicode="&#xaf;" />
<glyph unicode="&#xb0;" />
<glyph unicode="&#xb1;" />
<glyph unicode="&#xb2;" />
<glyph unicode="&#xb3;" />
<glyph unicode="&#xb4;" />
<glyph unicode="&#xb5;" />
<glyph unicode="&#xb6;" />
<glyph unicode="&#xb8;" />
<glyph unicode="&#xb9;" />
<glyph unicode="&#xba;" />
<glyph unicode="&#xbb;" />
<glyph unicode="&#xbc;" />
<glyph unicode="&#xbd;" />
<glyph unicode="&#xbe;" />
<glyph unicode="&#xbf;" horiz-adv-x="722" d="M-124 -581q0 104 145 231l270 202q145 108 145 168q0 32 -30 37q-53 8 -53 32q0 39 47 39q48 0 78 -35t30 -80q0 -81 -144 -202q-134 -103 -268 -207q-144 -118 -145 -189q0 -131 199 -131q105 0 240 66q90 44 202 121q94 65 98 66q43 0 43 -48q0 -50 -164 -143 q-140 -80 -210 -100q-106 -29 -212 -29q-271 0 -271 202zM358 338q0 17 25.5 33t42.5 16q59 0 60 -45q-1 -54 -63 -54q-65 0 -65 50z" />
<glyph unicode="&#xc0;" />
<glyph unicode="&#xc1;" />
<glyph unicode="&#xc2;" />
<glyph unicode="&#xc3;" />
<glyph unicode="&#xc4;" />
<glyph unicode="&#xc5;" />
<glyph unicode="&#xc6;" />
<glyph unicode="&#xc7;" />
<glyph unicode="&#xc8;" />
<glyph unicode="&#xc9;" />
<glyph unicode="&#xca;" />
<glyph unicode="&#xcb;" />
<glyph unicode="&#xcc;" />
<glyph unicode="&#xcd;" />
<glyph unicode="&#xce;" />
<glyph unicode="&#xcf;" />
<glyph unicode="&#xd0;" />
<glyph unicode="&#xd1;" />
<glyph unicode="&#xd2;" />
<glyph unicode="&#xd3;" />
<glyph unicode="&#xd4;" />
<glyph unicode="&#xd5;" />
<glyph unicode="&#xd6;" />
<glyph unicode="&#xd7;" />
<glyph unicode="&#xd8;" />
<glyph unicode="&#xd9;" />
<glyph unicode="&#xda;" />
<glyph unicode="&#xdb;" />
<glyph unicode="&#xdc;" />
<glyph unicode="&#xdd;" />
<glyph unicode="&#xde;" />
<glyph unicode="&#xdf;" />
<glyph unicode="&#xe0;" />
<glyph unicode="&#xe1;" horiz-adv-x="715" d="M-40 -24q0 122 131 328q127 198 277 326q164 139 242 88q37 -23 38 -99q0 -90 -62 -95q-43 -3 -43 30q0 5 2 9q19 46 18 82q0 21 -5 20q-97 -18 -313 -298t-216 -387q0 -37 33 -37q85 0 267 220q126 152 137 169q56 77 64 141q5 44 46 44q59 0 48 -58q-48 -251 -48 -305 q0 -99 44 -111q16 -4 33 6q15 9 17 17q10 42 49 42q23 0 23 -25q0 -11 -6 -26q-30 -76 -109 -77q-22 0 -44 9q-93 33 -92 217q0 20 1 40q-97 -129 -213 -235q-149 -137 -235 -137q-28 0 -49 16q-35 26 -35 86zM472 838q0 19 25 29q163 70 236 162q7 8 26 8q30 0 52 -18 q25 -21 9 -49q-24 -35 -131 -84q-49 -22 -169 -70q-10 -3 -19 -3q-29 0 -29 25z" />
<glyph unicode="&#xe2;" />
<glyph unicode="&#xe3;" />
<glyph unicode="&#xe4;" />
<glyph unicode="&#xe5;" />
<glyph unicode="&#xe6;" />
<glyph unicode="&#xe7;" />
<glyph unicode="&#xe8;" />
<glyph unicode="&#xe9;" horiz-adv-x="610" d="M-37 134q8 146 156 362q159 232 290 233q44 0 67 -41q18 -30 17 -64q0 -96 -80 -219q-96 -149 -220 -149q-59 0 -90 25l-4 3q-18 -16 -37.5 -95t-19.5 -137q0 -76 100 -76q97 0 227 112q126 109 174 225h31q19 -18 13 -33q-57 -164 -189 -272q-126 -104 -253 -105 q-94 0 -141 65q-47 61 -41 166zM127 338q0 -11 45 -13q76 -4 165 109q88 110 88 197q0 37 -28 29q-37 -9 -67 -45q-203 -238 -203 -277zM301 778q0 20 25 29q164 70 237 162q7 8 24 8q31 0 54 -17q25 -21 8 -49q-23 -36 -130 -85q-50 -22 -170 -69q-10 -3 -18 -3 q-29 0 -30 24z" />
<glyph unicode="&#xea;" />
<glyph unicode="&#xeb;" />
<glyph unicode="&#xec;" />
<glyph unicode="&#xed;" horiz-adv-x="307" d="M3 222q0 87 21 214q32 183 88 183q44 0 44 -50q0 -23 -27 -88q-28 -70 -41 -239q2 -80 0 -96q13 -60 25 -121q25 -80 75 -80q12 0 16 4q14 19 38 31q20 -18 20 -34q0 -26 -34 -45q-28 -17 -50 -17q-93 0 -141 144q-34 99 -34 194zM103 758q0 19 26 29q163 70 236 162 q7 8 25 8q30 0 53 -18q25 -21 9 -49q-24 -35 -131 -84q-49 -22 -170 -70q-10 -3 -18 -3q-29 0 -30 25z" />
<glyph unicode="&#xee;" />
<glyph unicode="&#xef;" />
<glyph unicode="&#xf0;" />
<glyph unicode="&#xf1;" horiz-adv-x="698" d="M-46 -43q1 16 63 414q3 50 9 137q8 80 59 80q29 0 40 -21l12 -44l-58 -291l17 29q210 355 297 355q83 0 110 -122q9 -93 18 -185q16 -152 19 -172q22 -137 66 -137q19 0 50 34l36 -12q2 -38 -33 -62q-26 -19 -49 -19q-140 0 -173 317q-6 75 -21 206q-11 80 -27 80 q-33 0 -163 -205t-184 -379q-14 -47 -48 -47q-44 0 -40 44zM99 704q0 6 28 45q26 36 35 46q20 22 46 33q19 8 37 8q36 0 99 -47q57 -41 86 -30q12 5 43 30q28 23 41 23q14 0 19 -13q7 -14 -2 -28q-61 -87 -126 -86q-25 -1 -48 13q-29 19 -60.5 38.5t-55.5 19.5 q-31 0 -65 -29l-26 -28q-19 -18 -30 -17q-20 0 -21 22z" />
<glyph unicode="&#xf2;" />
<glyph unicode="&#xf3;" horiz-adv-x="612" d="M-15 109q0 150 72 325.5t134 175.5q57 0 57 -48q0 -14 -32 -57q-154 -203 -155 -379q0 -152 77 -152q115 0 225 209q97 181 96 292q0 159 -79 159q-60 0 -128 -64l-15 8q-14 8 -14 24q0 33 71 67q59 28 86 28q158 0 164 -244q3 -118 -104 -311q-125 -225 -272 -238 q-85 -7 -136 58q-47 59 -47 147zM294 781q0 20 24 29q164 71 236 162q7 9 25 9q30 0 53 -18q25 -21 9 -48q-23 -37 -131 -86q-49 -22 -170 -68q-10 -4 -17 -4q-29 0 -29 24z" />
<glyph unicode="&#xf4;" />
<glyph unicode="&#xf5;" horiz-adv-x="612" d="M-15 109q0 150 72 325.5t134 175.5q57 0 57 -48q0 -14 -32 -57q-154 -203 -155 -379q0 -152 77 -152q115 0 225 209q97 181 96 292q0 159 -79 159q-60 0 -128 -64l-15 8q-14 8 -14 24q0 33 71 67q59 28 86 28q158 0 164 -244q3 -118 -104 -311q-125 -225 -272 -238 q-85 -7 -136 58q-47 59 -47 147zM163 752q0 6 28 45q25 36 34 45q20 23 47 34q18 8 36 8q37 0 101 -47q57 -42 84 -30q12 4 44 30q27 22 40 22q14 0 20 -13q7 -14 -3 -28q-61 -86 -126 -86q-25 0 -47 13q-30 20 -60.5 39.5t-55.5 19.5q-31 0 -65 -31q-13 -13 -25 -26 q-19 -19 -32 -18q-20 0 -20 23z" />
<glyph unicode="&#xf6;" />
<glyph unicode="&#xf7;" />
<glyph unicode="&#xf8;" horiz-adv-x="540" />
<glyph unicode="&#xf9;" />
<glyph unicode="&#xfa;" horiz-adv-x="673" d="M-31 92q0 53 55 283q64 263 109 266q21 0 41 -13.5t20 -29.5q-1 -8 -7 -25l-17 -44q-124 -334 -124 -469q0 -82 28 -81q35 0 109 90q80 98 158 252q88 172 89 261q1 31 19 57.5t43 26.5q49 0 49 -49q0 -8 -17 -95.5t-17 -166.5q0 -306 95 -306q22 0 48 26q12 12 35 26 q21 -19 21 -30q0 -35 -48 -62q-39 -22 -63 -23q-152 0 -178 333l-1 17q-104 -218 -135 -267q-104 -161 -221 -161q-92 0 -91 184zM294 781q0 20 24 29q164 71 236 162q7 9 25 9q30 0 53 -18q25 -21 9 -48q-23 -37 -131 -86q-49 -22 -170 -68q-10 -4 -17 -4q-29 0 -29 24z " />
<glyph unicode="&#xfb;" />
<glyph unicode="&#xfc;" />
<glyph unicode="&#xfd;" />
<glyph unicode="&#xfe;" />
<glyph unicode="&#xff;" />
<glyph unicode="&#x152;" />
<glyph unicode="&#x153;" />
<glyph unicode="&#x178;" />
<glyph unicode="&#x2c6;" />
<glyph unicode="&#x2dc;" />
<glyph unicode="&#x2000;" horiz-adv-x="682" />
<glyph unicode="&#x2001;" horiz-adv-x="1365" />
<glyph unicode="&#x2002;" horiz-adv-x="682" />
<glyph unicode="&#x2003;" horiz-adv-x="1365" />
<glyph unicode="&#x2004;" horiz-adv-x="455" />
<glyph unicode="&#x2005;" horiz-adv-x="341" />
<glyph unicode="&#x2006;" horiz-adv-x="227" />
<glyph unicode="&#x2007;" horiz-adv-x="227" />
<glyph unicode="&#x2008;" horiz-adv-x="170" />
<glyph unicode="&#x2009;" horiz-adv-x="273" />
<glyph unicode="&#x200a;" horiz-adv-x="75" />
<glyph unicode="&#x2010;" horiz-adv-x="654" d="M20 403q6 30 141 59q101 21 169 27q70 5 112 -2q47 -9 89 -32q59 -32 51 -73l-27 -21q-30 10 -66 34q-26 18 -44 20q-31 6 -66 6q-64 0 -298 -67q-13 -4 -21 -3q-48 9 -40 52z" />
<glyph unicode="&#x2011;" horiz-adv-x="654" d="M20 403q6 30 141 59q101 21 169 27q70 5 112 -2q47 -9 89 -32q59 -32 51 -73l-27 -21q-30 10 -66 34q-26 18 -44 20q-31 6 -66 6q-64 0 -298 -67q-13 -4 -21 -3q-48 9 -40 52z" />
<glyph unicode="&#x2012;" horiz-adv-x="654" d="M20 403q6 30 141 59q101 21 169 27q70 5 112 -2q47 -9 89 -32q59 -32 51 -73l-27 -21q-30 10 -66 34q-26 18 -44 20q-31 6 -66 6q-64 0 -298 -67q-13 -4 -21 -3q-48 9 -40 52z" />
<glyph unicode="&#x2013;" horiz-adv-x="802" d="M-3 399q0 5 1 11q6 30 161 59q117 21 193 26q137 9 228 -4q51 -8 100 -32q68 -33 59 -74l-30 -20q-31 9 -73 33q-30 18 -52 21q-38 6 -90 6q-220 0 -422 -62q-21 -6 -29 -5q-46 7 -46 41z" />
<glyph unicode="&#x2014;" horiz-adv-x="1102" d="M-48 400q0 6 2 11q8 29 211 58q152 21 252 26q277 14 406 -2q60 -7 123 -29q86 -31 86 -68q0 -4 -2 -9l-36 -18q-36 8 -90 32q-42 19 -72 21q-48 6 -123 6q-153 0 -359 -20q-200 -20 -306 -45q-26 -6 -34 -5q-58 7 -58 42z" />
<glyph unicode="&#x2018;" horiz-adv-x="211" d="M7 804q0 58 36 133q38 80 89 119q13 10 25 10q20 0 23 -19q4 -19 -18 -36q-54 -42 -54 -164q0 -24 3 -46q3 -16 -20.5 -33.5t-46.5 -17.5q-37 0 -37 54z" />
<glyph unicode="&#x2019;" horiz-adv-x="242" d="M12 765q0 17 18 31q55 42 55 165q0 24 -4 46q-2 16 21 33.5t46 17.5q37 0 37 -54q0 -59 -36 -133q-38 -81 -89 -120q-13 -10 -24 -10q-24 0 -24 24z" />
<glyph unicode="&#x201a;" />
<glyph unicode="&#x201c;" horiz-adv-x="252" d="M-4 789q0 58 36 134q37 81 89 120q12 9 24 8q20 0 24 -17q5 -20 -18 -36q-55 -43 -54 -166q-1 -24 3 -46q2 -16 -21 -33.5t-46 -17.5q-37 0 -37 54zM126 789q0 58 36 134q38 81 89 120q13 9 24 8q20 0 23 -17q5 -20 -17 -36q-55 -43 -55 -166q0 -24 4 -46 q2 -16 -21 -33.5t-46 -17.5q-37 0 -37 54z" />
<glyph unicode="&#x201d;" horiz-adv-x="293" d="M-43 736q0 17 19 31q55 43 54 165q0 23 -4 46q-2 16 21 33.5t47 17.5q37 0 37 -54q0 -58 -36 -133q-38 -81 -89 -120q-13 -9 -25 -9q-24 0 -24 23zM87 736q0 17 18 31q55 43 55 165q0 23 -4 46q-2 16 21.5 33.5t45.5 17.5q37 0 37 -54q0 -58 -36 -133q-36 -81 -88 -120 q-12 -9 -25 -9q-24 0 -24 23z" />
<glyph unicode="&#x201e;" />
<glyph unicode="&#x2022;" />
<glyph unicode="&#x2026;" horiz-adv-x="1068" d="M46 43q0 54 54 54q82 0 82 -46q0 -72 -60 -72q-25 0 -50.5 18.5t-25.5 45.5zM462 43q0 54 56 54q81 0 81 -46q-1 -72 -61 -72q-25 0 -48 17q-27 20 -28 47zM854 43q0 54 55 54q82 0 82 -46q-1 -72 -61 -72q-25 0 -50.5 18.5t-25.5 45.5z" />
<glyph unicode="&#x202f;" horiz-adv-x="273" />
<glyph unicode="&#x2039;" />
<glyph unicode="&#x203a;" />
<glyph unicode="&#x205f;" horiz-adv-x="341" />
<glyph unicode="&#x2122;" />
<glyph unicode="&#x25fc;" horiz-adv-x="843" d="M0 0v844h844v-844h-844z" />
</font>
</defs>
</svg>
